<svg xmlns="http://www.w3.org/2000/svg" width="32" height="32" viewBox="0 0 32 32">
  <circle cx="16" cy="16" r="15" fill="#22C55E"/>
  <path d="M16 6 C16 6, 12 12, 12 18 C12 22, 14 24, 16 24 C18 24, 20 22, 20 18 C20 12, 16 6, 16 6 Z" fill="#15803D"/>
  <path d="M16 10 C16 10, 20 14, 22 16 C24 18, 23 19, 22 18 C20 16, 16 14, 16 14" fill="none" stroke="#86EFAC" stroke-width="1.5" stroke-linecap="round"/>
  <path d="M16 12 C16 12, 12 15, 10 17 C8 19, 9 20, 10 19 C12 17, 16 15, 16 15" fill="none" stroke="#86EFAC" stroke-width="1.5" stroke-linecap="round"/>
</svg>
